# xmcd
#
# Track frame offsets: 
#        150
#        15462
#        34547
#        66580
#        89417
#        108190
#        124607
#        133725
#        160000
#        186452
#
# Disc length: 2854 seconds
#
# Revision: 1
# Processed by: cddbd v1.5.2PL0 Copyright (c) Steve Scherf et al.
# Submitted via: ExactAudioCopy v0.99pb5
#
DISCID=810b240a
DTITLE=Sylvain Kassap Quartet - Otponneo strophes
DYEAR=1998
DGENRE=Avant-Garde
TTITLE0=Palindrome (s)
TTITLE1=Palimpseste
TTITLE2=Petits malentendus sans importance
TTITLE3=Molly Bloom
TTITLE4=Botrtis Cinerea
TTITLE5=Portegne
TTITLE6=Vers
TTITLE7=Strange fruit
TTITLE8=Bancal
TTITLE9=Scalp
EXTD=
EXTT0=
EXTT1=
EXTT2=
EXTT3=
EXTT4=
EXTT5=
EXTT6=
EXTT7=
EXTT8=
EXTT9=
PLAYORDER=
